<svg xmlns="http://www.w3.org/2000/svg" xmlns:xlink="http://www.w3.org/1999/xlink" width="500" zoomAndPan="magnify" viewBox="0 0 375 149.999998" height="200" preserveAspectRatio="xMidYMid meet" version="1.0"><defs><g/><clipPath id="7fe1162770"><path d="M 0.015625 23.425781 L 374.25 23.425781 L 374.25 126.925781 L 0.015625 126.925781 Z M 0.015625 23.425781 " clip-rule="nonzero"/></clipPath><clipPath id="9e34367044"><path d="M 3.761719 23.425781 L 370.488281 23.425781 C 372.554688 23.425781 374.234375 25.113281 374.234375 27.191406 L 374.234375 123.164062 C 374.234375 125.242188 372.554688 126.925781 370.488281 126.925781 L 3.761719 126.925781 C 1.695312 126.925781 0.015625 125.242188 0.015625 123.164062 L 0.015625 27.191406 C 0.015625 25.113281 1.695312 23.425781 3.761719 23.425781 " clip-rule="nonzero"/></clipPath><clipPath id="b1596f1bd8"><path d="M 10.117188 33.121094 L 187.261719 33.121094 L 187.261719 116.878906 L 10.117188 116.878906 Z M 10.117188 33.121094 " clip-rule="nonzero"/></clipPath></defs><g clip-path="url(#7fe1162770)"><g clip-path="url(#9e34367044)"><path stroke-linecap="butt" transform="matrix(0.74946, 0, 0, 0.752642, 0.0161771, 23.426877)" fill="none" stroke-linejoin="miter" d="M 4.997652 -0.0014556 L 494.318554 -0.0014556 C 497.075747 -0.0014556 499.316943 2.240647 499.316943 5.001755 L 499.316943 132.516156 C 499.316943 135.277264 497.075747 137.514176 494.318554 137.514176 L 4.997652 137.514176 C 2.24046 137.514176 -0.000736649 135.277264 -0.000736649 132.516156 L -0.000736649 5.001755 C -0.000736649 2.240647 2.24046 -0.0014556 4.997652 -0.0014556 " stroke="#5bb780" stroke-width="14" stroke-opacity="1" stroke-miterlimit="4"/></g></g><g clip-path="url(#b1596f1bd8)"><path fill="#5bb780" d="M 10.117188 33.121094 L 187.523438 33.121094 L 187.523438 116.996094 L 10.117188 116.996094 Z M 10.117188 33.121094 " fill-opacity="1" fill-rule="nonzero"/></g><g fill="#ebeff1" fill-opacity="1"><g transform="translate(41.717114, 88.049885)"><g><path d="M 22.550781 0 L 26.089844 0 L 26.089844 -28.140625 L 22.550781 -28.140625 L 22.550781 -16.039062 L 7.636719 -16.039062 L 7.636719 -28.140625 L 4.101562 -28.140625 L 4.101562 0 L 7.636719 0 L 7.636719 -12.664062 L 22.550781 -12.664062 Z M 22.550781 0 "/></g></g></g><g fill="#ebeff1" fill-opacity="1"><g transform="translate(74.951184, 88.049885)"><g><path d="M 4.101562 0 L 21.625 0 L 21.625 -3.296875 L 7.636719 -3.296875 L 7.636719 -12.703125 L 20.179688 -12.703125 L 20.179688 -15.957031 L 7.636719 -15.957031 L 7.636719 -24.84375 L 21.183594 -24.84375 L 21.183594 -28.140625 L 4.101562 -28.140625 Z M 4.101562 0 "/></g></g></g><g fill="#ebeff1" fill-opacity="1"><g transform="translate(102.237905, 88.049885)"><g><path d="M 0.683594 0 L 4.460938 0 L 7.035156 -6.390625 L 20.742188 -6.390625 L 23.394531 0 L 27.132812 0 L 15.558594 -28.140625 L 12.261719 -28.140625 Z M 8.402344 -9.6875 L 13.910156 -23.195312 L 19.414062 -9.6875 Z M 8.402344 -9.6875 "/></g></g></g><g fill="#ebeff1" fill-opacity="1"><g transform="translate(133.101064, 88.049885)"><g><path d="M 4.101562 0 L 21.304688 0 L 21.304688 -3.375 L 7.636719 -3.375 L 7.636719 -28.140625 L 4.101562 -28.140625 Z M 4.101562 0 "/></g></g></g><g fill="#5bb780" fill-opacity="1"><g transform="translate(223.589008, 88.511248)"><g><path d="M 9.6875 0 L 17.769531 0 L 17.769531 -20.621094 L 26.332031 -20.621094 L 26.332031 -28.140625 L 1.125 -28.140625 L 1.125 -20.621094 L 9.6875 -20.621094 Z M 9.6875 0 "/></g></g></g><g fill="#5bb780" fill-opacity="1"><g transform="translate(251.042341, 88.511248)"><g><path d="M 2.976562 0 L 22.714844 0 L 22.714844 -6.632812 L 11.015625 -6.632812 L 11.015625 -10.972656 L 21.183594 -10.972656 L 21.183594 -17.488281 L 11.015625 -17.488281 L 11.015625 -21.585938 L 22.269531 -21.585938 L 22.269531 -28.140625 L 2.976562 -28.140625 Z M 2.976562 0 "/></g></g></g><g fill="#5bb780" fill-opacity="1"><g transform="translate(275.561432, 88.511248)"><g><path d="M 16.121094 0.601562 C 23.878906 0.601562 29.746094 -4.101562 30.953125 -11.257812 L 22.714844 -11.257812 C 21.707031 -8.601562 19.335938 -6.914062 16.28125 -6.914062 C 12.339844 -6.914062 9.609375 -9.847656 9.609375 -14.070312 C 9.609375 -18.332031 12.382812 -21.226562 16.363281 -21.226562 C 19.296875 -21.226562 21.75 -19.578125 22.59375 -17.042969 L 30.792969 -17.042969 C 29.347656 -24.160156 23.558594 -28.742188 16.039062 -28.742188 C 7.355469 -28.742188 1.367188 -22.753906 1.367188 -14.070312 C 1.367188 -5.386719 7.355469 0.601562 16.121094 0.601562 Z M 16.121094 0.601562 "/></g></g></g><g fill="#5bb780" fill-opacity="1"><g transform="translate(307.798005, 88.511248)"><g><path d="M 19.777344 0 L 27.898438 0 L 27.898438 -28.140625 L 19.777344 -28.140625 L 19.777344 -18.050781 L 11.09375 -18.050781 L 11.09375 -28.140625 L 2.976562 -28.140625 L 2.976562 0 L 11.09375 0 L 11.09375 -10.574219 L 19.777344 -10.574219 Z M 19.777344 0 "/></g></g></g></svg>